<svg width="1" height="1" viewBox="0 0 20 20" fill="none" xmlns="http://www.w3.org/2000/svg">
    <path d="M9.999 12.9167C11.8417 12.9167 13.3333 11.425 13 9.58332V4.99999C13.3333 3.15832 11.8417 1.66666 9.99999 1.66666C8.15832 1.66666 6.66666 3.15832 6.66666 4.99999V9.58332C6.66666 11.425 8.15832 12.9167 9.99999 12.9167Z" stroke="#1E1E1E" stroke-linecap="round" stroke-linejoin="round"/>
    <path d="M3.625 8.04165V9.45832C3.625 12.975 6.48333 15.8333 10 15.8333M10 15.8333C13.5167 15.8333 16.375 12.975 16.375 9.45832V8.04165M10 15.8333V18.33M8.84167 5.35832C9.59167 5.08332 10.4083 5.08332 11.1583 5.35832M9.33333 7.12499C9.775 7.002 10.2333 7.00832 10.675 7.12" stroke="#1E1E1E" stroke-linecap="round" stroke-linejoin="round"/>
</svg>
