<svg width="18" height="18" viewBox="0 0 18 18" fill="none" xmlns="http://www.w3.org/2000/svg">
    <path d="M17.3334 17.3333L15.6667 15.6667M8.58335 16.5C9.62298 16.5 10.6524 16.2952 11.6129 15.8974C12.5734 15.4995 13.4462 14.9164 14.1813 14.1813C14.9164 13.4461 15.4995 12.5734 15.8974 11.6129C16.2952 10.6524 16.5 9.62295 16.5 8.58332C16.5 7.54369 16.2952 6.51424 15.8974 5.55375C15.4995 4.59325 14.9164 3.72052 14.1813 2.98539C13.4462 2.25026 12.5734 1.66713 11.6129 1.26928C10.6524 0.871427 9.62298 0.666656 8.58335 0.666656C6.48372 0.666657 4.47009 1.50073 2.98542 2.98539C1.50076 4.47006 0.666687 6.48369 0.666687 8.58332C0.666687 10.683 1.50076 12.6966 2.98542 14.1813C4.47009 15.6659 6.48372 16.5 8.58335 16.5Z" stroke="#1E1E1E" stroke-linecap="round" stroke-linejoin="round"/>
</svg>
